<svg xmlns="http://www.w3.org/2000/svg" viewBox="0 0 64 64">
    <title>Green bottle</title>
    <path fill="#46732f" d="M38.3 30.7c-6.2-2.6-6.7-2.9-8.6-4.8l-1.2-2.6c-.3-.3-.3-1.1-.9-1.7-.6-.6-2.8-1.3-3.4-2 0 0 .2-.4-.1-.7-.3-.3-1.3.3-2.9 2-1.6 1.6-2.3 2.6-2 2.9.3.3.7.1.7.1.6.6 1.4 2.8 2 3.4.6.6 1.4.6 1.7.9l2.6 1.2c1.9 1.9 2.1 2.4 4.7 8.7 2.2 5.3 3.6 11.1 6.9 16 1.9 2.9 5.3 6.5 9.2 7.7.6.2 1.8.5 2.6-.3l11.8-11.9c.8-.8.5-2.1.3-2.7-1.1-3.8-4.8-7.3-7.6-9.3-4.7-3.3-10.6-4.7-15.8-6.9"/>
    <path fill="#ffe791" d="M39.9 31.3c-.5-.2-1.1-.4-1.7-.7-6.1-2.6-9.2-6.8-9.2-6.8l-1 2.7.7 1.9-1.4-1-3.6.8s4.5 3.4 7.3 9.9c.2.6.4 1.1.7 1.6l1.7-1.7.7 1.7 2.7-1.8 1.1-.3.3-1.1 1.8-2.7-1.7-.7 1.6-1.8"/>
    <path fill="#ffe791" d="M59.7 45.5l-14 14c-2.5-1.6-4.6-3.7-6.2-6.2l14-14C56 41 58 43 59.7 45.5"/>
</svg>
