<svg xmlns="http://www.w3.org/2000/svg" viewBox="0 0 64 64">
    <title>Glass of water</title>
    <path fill="#a1b8c7" d="M32 2c-9.9 0-18 3.8-18 8.4 0 0 0 28 7.7 43.7.7 4.5 5 7.9 10.3 7.9 5.2 0 9.5-3.4 10.3-7.9C50 38.4 50 10.4 50 10.4 50 5.8 41.9 2 32 2" fill-opacity=".8" stroke="#7c9098" stroke-width="1.4" stroke-linejoin="round"/>
    <g fill="#555e63">
        <path d="M32 58.3c-4.3 0-8.1-1.7-10.3-4.2.7 4.5 5 7.9 10.3 7.9 5.2 0 9.5-3.4 10.3-7.9-2.2 2.5-6 4.2-10.3 4.2" opacity=".3"/>
        <path d="M32 59c-3.4 0-6.4-.9-8.1-2.3.6 2.4 4 4.3 8.1 4.3s7.5-1.9 8.1-4.3C38.4 58.1 35.4 59 32 59" opacity=".3"/>
    </g>
    <path fill="#a7dceb" d="M32 14.2c-8.6 0-15 2.9-15 7.2 0 0 .8 18.5 6.1 31 1.9 2.3 5.2 3.8 8.9 3.8s7-1.5 8.9-3.8c5.3-12.5 6.1-31 6.1-31 0-4.3-6.4-7.2-15-7.2"/>
    <g fill="#d9f4fb">
        <path d="M32 14.2c-9.2 0-15 3-15 7.3s6.3 8 15 8 15-3.7 15-8-5.8-7.3-15-7.3"/>


    </g>

    <path fill="#555e63" d="M32 2c-9.9 0-18 3.8-18 8.4 0 4.6 8.1 8.4 18 8.4s18-3.8 18-8.4C50 5.8 41.9 2 32 2m0 14.6c-9.1 0-16.5-3-16.5-6.7S22.9 2.7 32 2.7s16.5 3.5 16.5 7.2-7.4 6.7-16.5 6.7" opacity=".3"/>
</svg>
